<svg width="22" height="24" viewBox="0 0 22 24" fill="none" xmlns="http://www.w3.org/2000/svg">
<path d="M2 13.5C1.17157 13.5 0.5 12.8284 0.5 12C0.5 11.1716 1.17157 10.5 2 10.5L2 13.5ZM21.0607 10.9393C21.6464 11.5251 21.6464 12.4749 21.0607 13.0607L11.5147 22.6066C10.9289 23.1924 9.97919 23.1924 9.3934 22.6066C8.80761 22.0208 8.80761 21.0711 9.3934 20.4853L17.8787 12L9.3934 3.51472C8.80761 2.92893 8.80761 1.97918 9.3934 1.3934C9.97918 0.807611 10.9289 0.807611 11.5147 1.3934L21.0607 10.9393ZM2 10.5L20 10.5L20 13.5L2 13.5L2 10.5Z" fill="#0C3944"/>
</svg>
